<svg xmlns="http://www.w3.org/2000/svg" width="40.175" height="40.35" viewBox="0 0 40.175 40.35">
  <g id="ic-beauty-product" transform="translate(-169.825 -534.824)">
    <circle id="Ellipse_77" data-name="Ellipse 77" cx="18" cy="18" r="18" transform="translate(174 537)" fill="#4d40ff" opacity="0.2"/>
    <path id="Union_6" data-name="Union 6" d="M-3520.784-1549a1.818,1.818,0,0,1-1.842-1.788v-4.181a2.433,2.433,0,0,1-1.5-2.065l-.2-2.953a.592.592,0,0,1,.562-.623.6.6,0,0,1,.641.546l.2,2.953a1.275,1.275,0,0,0,1.284,1.168h3.787a1.275,1.275,0,0,0,1.284-1.168l1.3-19.335h-8.958l.935,13.885a.592.592,0,0,1-.562.623.6.6,0,0,1-.641-.546l-1.129-16.761a1.272,1.272,0,0,1,.356-.965,1.349,1.349,0,0,1,.968-.407h9.107a1.35,1.35,0,0,1,.968.407,1.27,1.27,0,0,1,.356.964l-1.5,22.211a2.433,2.433,0,0,1-1.5,2.065v4.181a1.817,1.817,0,0,1-1.841,1.788Zm-.635-1.788a.627.627,0,0,0,.635.617h2.075a.627.627,0,0,0,.635-.617v-3.982h-3.345Zm-2.968-28.62a.112.112,0,0,0-.032.087l.115,1.7h9.116l.115-1.7a.112.112,0,0,0-.032-.087.119.119,0,0,0-.087-.037h-9.107A.118.118,0,0,0-3524.387-1579.409Zm-6.158,30.408a2.588,2.588,0,0,1-2.622-2.546v-4.551a1.748,1.748,0,0,1-1.2-1.545l-1.279-24.15-2.385-3.936a.571.571,0,0,1-.083-.3v-1.966a1.025,1.025,0,0,1,1.039-1.009H-3517a1.025,1.025,0,0,1,1.039,1.009v1.966a.574.574,0,0,1-.083.3l-2.212,3.651a.613.613,0,0,1-.826.208.576.576,0,0,1-.214-.8l1.677-2.769h-18.839l1.925,3.177a.574.574,0,0,1,.083.267l1.287,24.291a.579.579,0,0,0,.585.535h6.679a.6.6,0,0,1,.6.586.6.6,0,0,1-.6.586h-6.065v4.452a1.4,1.4,0,0,0,1.416,1.375h6.326a.6.6,0,0,1,.6.586.6.6,0,0,1-.6.586Zm-6.361-37.611h19.743v-1.217h-19.743ZM-3543.02-1549a2.81,2.81,0,0,1-2.847-2.765v-2.344a.6.6,0,0,1,.6-.586.6.6,0,0,1,.6.586v2.344a1.619,1.619,0,0,0,1.64,1.593h4.1a1.619,1.619,0,0,0,1.641-1.593v-6.55h-7.381v1.71a.6.6,0,0,1-.6.586.6.6,0,0,1-.6-.586v-2.294h0v-2.118a1.23,1.23,0,0,1,.833-1.152v-4.645a1.177,1.177,0,0,1,1.193-1.159h.053v-5.92a5.5,5.5,0,0,1,1.357-3.6l.877-1.009a1.394,1.394,0,0,1,1.245-.463,1.369,1.369,0,0,1,1.067.776,11.586,11.586,0,0,1,1.089,4.915v1.82a.6.6,0,0,1-.6.586.6.6,0,0,1-.6-.586v-1.82a10.569,10.569,0,0,0-.107-1.5,6.324,6.324,0,0,1-3.116,2.93v3.868h3.223v-.987a.6.6,0,0,1,.6-.586.6.6,0,0,1,.6.586v.987h.053a1.177,1.177,0,0,1,1.193,1.159v4.645a1.23,1.23,0,0,1,.833,1.152v9.255a2.81,2.81,0,0,1-2.847,2.765Zm-1.64-12.019v1.533h7.381v-1.533a.056.056,0,0,0-.057-.055h-7.267A.056.056,0,0,0-3544.66-1561.02Zm.833-1.227h5.715v-4.557h-5.715Zm3.2-15.5-.877,1.009a4.343,4.343,0,0,0-1.073,2.847v.733a5.06,5.06,0,0,0,2.413-3.139l.157-.622q-.148-.4-.329-.788a.169.169,0,0,0-.135-.1l-.026,0A.17.17,0,0,0-3540.632-1577.75Z" transform="translate(3715.867 2124)" fill="#635ea1" stroke="#635ea1" stroke-width="0.35"/>
  </g>
</svg>
