<svg xmlns="http://www.w3.org/2000/svg" width="40.2" height="40.2" viewBox="0 0 40.2 40.2">
  <g id="ic-clothings" transform="translate(-169.9 -535.9)">
    <circle id="Ellipse_77" data-name="Ellipse 77" cx="18" cy="18" r="18" transform="translate(174 537)" fill="#4d40ff" opacity="0.2"/>
    <path id="male-clothes" d="M55.333,30.585V26.667A.667.667,0,0,0,54.666,26h-8v-.037A5.967,5.967,0,0,0,43.35,20.6L38.5,18.17l-.567-1.135a.666.666,0,0,0-.435-.349l-2.667-.667A.665.665,0,0,0,34.666,16H28a.665.665,0,0,0-.162.019l-2.667.667a.666.666,0,0,0-.435.349l-.567,1.135L19.316,20.6A5.967,5.967,0,0,0,16,25.963v9.37a.667.667,0,0,0,.667.667h4.667V48.667a.667.667,0,0,0,.667.667H37.333v6A.667.667,0,0,0,38,56h6.667a.667.667,0,0,0,.662-.587l1.338-11.151L48,55.413a.667.667,0,0,0,.662.587h6.667A.667.667,0,0,0,56,55.333v-22a.665.665,0,0,0-.02-.162Zm-16-.585V27.333h1.333V30ZM42,27.333h1.333V30H42Zm2.667,0H46V30H44.666Zm2.667,0h1.333V30H47.333Zm2.667,0h1.333V30H50Zm2.667,0H54V30H52.666ZM35.178,20.427A.667.667,0,0,0,35.333,20V17.52l1.541.385,1.381,2.761H36.666a.667.667,0,0,0-.667.667v2.255l-4,2V24.242ZM34,18.667H28.666V17.333H34ZM33.8,20l-2.465,2.958L28.867,20Zm-8.006-2.094,1.541-.385V20a.667.667,0,0,0,.155.427l3.179,3.815v1.347l-4-2V21.333A.667.667,0,0,0,26,20.667H24.412ZM17.333,34.667V33.333h4v1.333Zm5.333-3.333h4v1.333h-4Zm0,4V34h4v2.667h-4Zm0,2.667h4.667A.667.667,0,0,0,28,37.333V30.667A.667.667,0,0,0,27.333,30H22.666V28a.667.667,0,0,0-1.333,0v4h-4V25.963a4.642,4.642,0,0,1,2.58-4.174l3.263-1.632-.439.878a.667.667,0,0,0,.6.965h2v2a.667.667,0,0,0,.368.6l4.965,2.482V48h-8ZM32,48V27.079L36.964,24.6a.667.667,0,0,0,.368-.6V22h2a.667.667,0,0,0,.6-.965l-.439-.878,3.263,1.632a4.642,4.642,0,0,1,2.58,4.174V26H38.666a.667.667,0,0,0-.667.667v3.918l-.647,2.587a.665.665,0,0,0-.02.162V48Zm6.667,6.667V53.333h5.569l-.16,1.333Zm8.662-16.079a.667.667,0,0,0-1.324,0L44.395,52H38.666V33.415l.521-2.082H54.146l.521,2.082V52H48.938Zm1.93,16.079-.16-1.333h5.568v1.333Z" transform="translate(154 520)" fill="#635ea1" stroke="#635ea1" stroke-width="0.2"/>
  </g>
</svg>
