<svg xmlns="http://www.w3.org/2000/svg" width="40.3" height="40.3" viewBox="0 0 40.3 40.3">
  <g id="ic-crockery" transform="translate(-169.85 -535.85)">
    <circle id="Ellipse_77" data-name="Ellipse 77" cx="18" cy="18" r="18" transform="translate(174 537)" fill="#4d40ff" opacity="0.2"/>
    <path id="Union_17" data-name="Union 17" d="M-3598.645-1619.08a.687.687,0,0,1-.33-.421l-1.333-4.828a.712.712,0,0,1,.064-.534.671.671,0,0,1,.416-.324l5.333-1.379a.646.646,0,0,1,.46.052l2.435,1.259,3.554-1.05a2.115,2.115,0,0,1,1.5-2l4.682-1.321a1.965,1.965,0,0,1,1.568.215,2.088,2.088,0,0,1,.948,1.31,2.13,2.13,0,0,1-1.443,2.549l-4.681,1.321a2,2,0,0,1-2.162-.758l-3.481,1.029-.573,2.372a.682.682,0,0,1-.436.487l-6,2.069a.647.647,0,0,1-.211.036A.649.649,0,0,1-3598.645-1619.08Zm-.192-4.941.952,3.449,4.992-1.722.448-1.854-1.968-1.018Zm17.324-4.276-4.681,1.321a.739.739,0,0,0-.5.883.73.73,0,0,0,.329.454.685.685,0,0,0,.543.074l4.682-1.321h0a.739.739,0,0,0,.5-.883.713.713,0,0,0-.684-.555A.7.7,0,0,0-3581.512-1628.3Zm-26.02-.356-2.952-2.036A7.924,7.924,0,0,0-3615-1632.1a2.035,2.035,0,0,1-2-2.069,2.035,2.035,0,0,1,2-2.069,11.367,11.367,0,0,1,6.477,2.028l2.733,1.885c.213-.1.449-.207.71-.305a15.916,15.916,0,0,1,5.413-.849,15.915,15.915,0,0,1,5.413.849c2.138.8,2.587,1.857,2.587,2.6a7.107,7.107,0,0,1-.741,3.163l-1.184-.633c.045-.091.087-.183.128-.276a7.877,7.877,0,0,1-.789.345,15.915,15.915,0,0,1-5.413.849,15.916,15.916,0,0,1-5.413-.849,7.8,7.8,0,0,1-.785-.343,5.334,5.334,0,0,0,4.865,3.261v1.379A6.738,6.738,0,0,1-3607.532-1628.653Zm2.908-2.684h0c-1.181.444-1.709.974-1.709,1.3s.528.858,1.709,1.3a14.608,14.608,0,0,0,4.958.766,14.611,14.611,0,0,0,4.958-.766c1.181-.444,1.709-.974,1.709-1.3s-.528-.859-1.709-1.3a14.608,14.608,0,0,0-4.958-.766A14.608,14.608,0,0,0-3604.624-1631.337Zm-5.121-.5,2.112,1.456a2.163,2.163,0,0,1,.635-1.123l-2.265-1.562a10.069,10.069,0,0,0-5.737-1.8.679.679,0,0,0-.667.69.679.679,0,0,0,.667.69h.009A9.221,9.221,0,0,1-3609.745-1631.837Zm18.745,3.871v-1.379h.345a4.077,4.077,0,0,0,3.989-3.82l.2-2.7a7.308,7.308,0,0,1-.961.368,17.234,17.234,0,0,1-4.906.635,17.231,17.231,0,0,1-4.906-.635,7.273,7.273,0,0,1-.961-.368l.121,1.64-1.329.106-.246-3.313a1.384,1.384,0,0,1-.013-.188c0-.909.817-1.624,2.428-2.124a17.235,17.235,0,0,1,4.906-.635,17.239,17.239,0,0,1,4.906.635,5.814,5.814,0,0,1,1.542.7l.2-.077a18.5,18.5,0,0,1,6.688-1.254,2.035,2.035,0,0,1,2,2.069,2.035,2.035,0,0,1-2,2.069,13.574,13.574,0,0,0-4.93.925l-1.277.495-.131,1.763a5.411,5.411,0,0,1-5.318,5.094Zm-7.331-9.655c.135.39,2.133,1.379,6,1.379s5.864-.989,6-1.379c-.135-.391-2.133-1.379-6-1.379S-3598.2-1638.011-3598.331-1637.621Zm13.3-.285a1.429,1.429,0,0,1,.029.285,1.438,1.438,0,0,1-.011.177l-.082,1.1.7-.27a14.865,14.865,0,0,1,5.4-1.013.656.656,0,0,0,.472-.2h0a.708.708,0,0,0,.143-.752A.668.668,0,0,0-3579-1639h0A17.16,17.16,0,0,0-3585.029-1637.905Zm-27.3.974v-4.828h-1a2.375,2.375,0,0,1-2.333-2.414,2.375,2.375,0,0,1,2.333-2.414h1v-1.379c0-.7.454-1.7,2.617-2.477a18.389,18.389,0,0,1,4.718-.9c0-.024,0-.048,0-.073a2.036,2.036,0,0,1,2-2.069,2.035,2.035,0,0,1,2,2.069c0,.024,0,.049,0,.073a18.392,18.392,0,0,1,4.718.9c2.163.779,2.617,1.777,2.617,2.477v1.379h1a2.374,2.374,0,0,1,2.333,2.414,2.374,2.374,0,0,1-2.333,2.414h-1v.69H-3595v-5.015a7.994,7.994,0,0,1-1.676.728,21.694,21.694,0,0,1-6.324.839,21.7,21.7,0,0,1-6.324-.839,7.981,7.981,0,0,1-1.676-.728v2.946h1.333v1.379H-3611v4.828Zm18.667-6.207h1a1.018,1.018,0,0,0,1-1.035,1.018,1.018,0,0,0-1-1.034h-1Zm-20.666-1.035a1.018,1.018,0,0,0,1,1.035h1v-2.069h-1A1.017,1.017,0,0,0-3614.333-1644.172Zm3.333-3.793c0,.176.371.751,2.068,1.292a20.391,20.391,0,0,0,5.932.778,20.393,20.393,0,0,0,5.932-.778c1.7-.54,2.068-1.115,2.068-1.292,0-.223-.459-.719-1.723-1.174a13.731,13.731,0,0,0-2.333-.584,1.327,1.327,0,0,1,.055.379c0,.388-.181,1.113-1.4,1.616a7.019,7.019,0,0,1-2.6.453,7.02,7.02,0,0,1-2.6-.453c-1.214-.5-1.4-1.228-1.4-1.616a1.327,1.327,0,0,1,.055-.379,13.719,13.719,0,0,0-2.333.584h0C-3610.542-1648.685-3611-1648.188-3611-1647.966Zm5.351-1.378a3.984,3.984,0,0,0,2.649.689,3.983,3.983,0,0,0,2.649-.689,2.47,2.47,0,0,0-1.286-.558,1.947,1.947,0,0,1-2.726,0A2.469,2.469,0,0,0-3605.649-1649.344Zm1.983-2.07a.679.679,0,0,0,.667.69.678.678,0,0,0,.667-.69.678.678,0,0,0-.667-.69A.679.679,0,0,0-3603.667-1651.414Zm17.333,11.035v-11.035H-3597a1.359,1.359,0,0,1,1.333-1.379h9.333a1.358,1.358,0,0,1,1.333,1.379v11.035Zm2-1.379v-9.655a2.038,2.038,0,0,0-2-2.069h-1.333a.679.679,0,0,1-.667-.69v-.69a2.714,2.714,0,0,0-2.667-2.758,2.714,2.714,0,0,0-2.667,2.758v.69a.678.678,0,0,1-.666.69h-1.334a2.012,2.012,0,0,0-1.937,1.551l-1.291-.344a3.353,3.353,0,0,1,3.228-2.587h.667a4.071,4.071,0,0,1,4-4.138,4.071,4.071,0,0,1,4,4.138h.667a3.4,3.4,0,0,1,3.333,3.448v9.655Zm-8-11.724a.679.679,0,0,1-.667-.69v-.69a2.035,2.035,0,0,1,2-2.069,2.036,2.036,0,0,1,2,2.069v.69a.679.679,0,0,1-.667.69Zm1.333-2.069a.679.679,0,0,0-.666.69h1.333a.7.7,0,0,0-.195-.488.653.653,0,0,0-.47-.2Z" transform="translate(3787 2195)" fill="#635ea1" stroke="#635ea1" stroke-width="0.3"/>
  </g>
</svg>
