<svg xmlns="http://www.w3.org/2000/svg" width="40.2" height="40.4" viewBox="0 0 40.2 40.4">
  <g id="ic-essential-oils" transform="translate(-169.8 -535.8)">
    <circle id="Ellipse_77" data-name="Ellipse 77" cx="18" cy="18" r="18" transform="translate(174 537)" fill="#4d40ff" opacity="0.2"/>
    <path id="Union_14" data-name="Union 14" d="M-3907.624-1357.28a4.038,4.038,0,0,1-1.925-3.547,4.423,4.423,0,0,1-1.1.488v.918a2.508,2.508,0,0,1-2.583,2.42h-10.187a2.508,2.508,0,0,1-2.583-2.42v-16.213a3.007,3.007,0,0,1,.287-1.283.643.643,0,0,1,.824-.3.573.573,0,0,1,.322.772,1.906,1.906,0,0,0-.182.813v2.03h6.006a1.415,1.415,0,0,1,1.458,1.366v6.872a1.415,1.415,0,0,1-1.458,1.366h-6.006v4.578a1.293,1.293,0,0,0,1.332,1.248h10.187a1.293,1.293,0,0,0,1.332-1.248v-.735h-.024a4.512,4.512,0,0,1-1.029-.118,2.381,2.381,0,0,1-1.986-2.206,4.111,4.111,0,0,1,2.317-3.336,4.1,4.1,0,0,1-2.213-2.485,2.267,2.267,0,0,1,1.046-2.714,3.8,3.8,0,0,1,1.89-.418v-4.2a1.956,1.956,0,0,0-.46-1.25l-2.131-2.546h-7.667l-.768.917a.654.654,0,0,1-.878.1.562.562,0,0,1-.106-.823l.834-1v-2.119h-.444a1.133,1.133,0,0,1-1.167-1.093v-3.052a1.133,1.133,0,0,1,1.167-1.093h2.293v-6.69a2.819,2.819,0,0,1,2.9-2.72,2.819,2.819,0,0,1,2.9,2.72v6.69h2.293a1.133,1.133,0,0,1,1.167,1.093v3.052a1.133,1.133,0,0,1-1.167,1.093h-.444v2.12l2.2,2.624a3.088,3.088,0,0,1,.728,1.974v4.375a4.112,4.112,0,0,1,1.1.456,3.875,3.875,0,0,1,1.19-3.037,2.613,2.613,0,0,1,3.032-.509,4.039,4.039,0,0,1,1.925,3.547c.091-.056.185-.11.28-.16a.649.649,0,0,1,.852.226.567.567,0,0,1-.241.8c-.069.036-.137.075-.2.116a4.958,4.958,0,0,0-1.682,1.832,2.89,2.89,0,0,1,.972,1.575,5.522,5.522,0,0,0,2.53-.444,3.018,3.018,0,0,0,1.631-2.278,1.2,1.2,0,0,0-.917-1.047.578.578,0,0,1-.395-.742.636.636,0,0,1,.792-.37,2.344,2.344,0,0,1,1.772,2.147,4.113,4.113,0,0,1-2.317,3.336,4.1,4.1,0,0,1,2.213,2.485,2.266,2.266,0,0,1-1.046,2.714,3.761,3.761,0,0,1-1.811.419,4.822,4.822,0,0,1-2.431-.631,3.875,3.875,0,0,1-1.191,3.037,2.732,2.732,0,0,1-1.893.789A2.429,2.429,0,0,1-3907.624-1357.28Zm-.676-3.483a2.952,2.952,0,0,0,1.29,2.462,1.33,1.33,0,0,0,1.518-.3,2.74,2.74,0,0,0,.841-2.155,4.687,4.687,0,0,0-.854-2.279,3.3,3.3,0,0,1-.969.145,3.3,3.3,0,0,1-.971-.146A4.7,4.7,0,0,0-3908.3-1360.763Zm-3.757-4.007a3.018,3.018,0,0,0-1.631,2.278,1.223,1.223,0,0,0,1.039,1.08,3.206,3.206,0,0,0,2.413-.395,4.964,4.964,0,0,0,1.682-1.832,2.889,2.889,0,0,1-.973-1.575c-.095,0-.195-.007-.3-.007A5.359,5.359,0,0,0-3912.056-1364.77Zm8.635-.444a2.89,2.89,0,0,1-.972,1.575,4.978,4.978,0,0,0,1.676,1.832,3.409,3.409,0,0,0,2.921.184,1.149,1.149,0,0,0,.479-1.382,2.9,2.9,0,0,0-1.571-1.76,5.343,5.343,0,0,0-2.233-.456Q-3903.278-1365.221-3903.421-1365.214Zm-4.92-.6a1.814,1.814,0,0,0,1.868,1.75,1.814,1.814,0,0,0,1.868-1.75,1.814,1.814,0,0,0-1.868-1.75A1.814,1.814,0,0,0-3908.341-1365.815Zm-16.407.642h6.006a.2.2,0,0,0,.206-.193v-6.872a.2.2,0,0,0-.206-.193h-6.006Zm11.6-4.833a1.15,1.15,0,0,0-.479,1.382,2.9,2.9,0,0,0,1.571,1.76,5.5,5.5,0,0,0,2.533.449,2.891,2.891,0,0,1,.972-1.575,4.977,4.977,0,0,0-1.676-1.832,3.543,3.543,0,0,0-1.754-.435A2.462,2.462,0,0,0-3913.151-1370.006Zm7.649,1.415a4.689,4.689,0,0,0,.854-2.275,2.952,2.952,0,0,0-1.29-2.462,1.33,1.33,0,0,0-1.518.3,2.742,2.742,0,0,0-.841,2.155,4.689,4.689,0,0,0,.854,2.279,3.3,3.3,0,0,1,.969-.145A3.3,3.3,0,0,1-3905.5-1368.591Zm-16.322-12.011h7v-1.749h-7Zm-1.611-2.922h10.224v-2.894h-10.224Zm3.46-10.757v6.69h3.3v-6.69a1.6,1.6,0,0,0-1.652-1.547A1.6,1.6,0,0,0-3919.975-1394.28Z" transform="translate(4096 1933)" fill="#635ea1" stroke="#635ea1" stroke-width="0.4"/>
  </g>
</svg>
