<svg xmlns="http://www.w3.org/2000/svg" width="27.02" height="16.8" viewBox="0 0 27.02 16.8">
  <g id="email-icon" transform="translate(2.4 -76.764)">
    <path id="Path_47" data-name="Path 47" d="M16.974,99.331a1.174,1.174,0,0,1-1.2-1.143V85.565H36.41a1.174,1.174,0,0,1,1.2,1.143V99.331" transform="translate(-12.991 -8.02)" fill="#4d40ff" opacity="0.2"/>
    <path id="Union_18" data-name="Union 18" d="M-2997.527-1510.835a1.565,1.565,0,0,1-1.6-1.524v-4.1a.391.391,0,0,1,.4-.381.391.391,0,0,1,.4.381v4.1a.782.782,0,0,0,.8.761h20.8a.782.782,0,0,0,.8-.761v-12.953a.782.782,0,0,0-.8-.761h-20.8a.782.782,0,0,0-.8.761v1.81a.39.39,0,0,1-.4.381.39.39,0,0,1-.4-.381v-1.81a1.565,1.565,0,0,1,1.6-1.524h20.8a1.564,1.564,0,0,1,1.6,1.524v12.953a1.564,1.564,0,0,1-1.6,1.524Zm1.32-2.395a.368.368,0,0,1-.006-.538l5.194-5.049-5.183-4.695a.368.368,0,0,1-.014-.538.413.413,0,0,1,.565-.013l5.407,4.9a.408.408,0,0,1,.081.058l1.184,1.088.011.01a2.731,2.731,0,0,0,2.4.657,2.693,2.693,0,0,0,1.284-.655l1.2-1.1a.4.4,0,0,1,.083-.059l5.405-4.9a.414.414,0,0,1,.566.013.369.369,0,0,1-.014.538l-5.183,4.694,5.193,5.049a.368.368,0,0,1-.005.538.409.409,0,0,1-.28.109.406.406,0,0,1-.286-.114l-5.2-5.057-.92.834a3.527,3.527,0,0,1-2.392.924,3.532,3.532,0,0,1-2.4-.927l-.918-.831-5.2,5.057a.407.407,0,0,1-.285.114A.408.408,0,0,1-2996.206-1513.23Zm-2.92-6.748a.391.391,0,0,1,.4-.381.391.391,0,0,1,.4.381.391.391,0,0,1-.4.381A.391.391,0,0,1-2999.127-1519.979Z" transform="translate(2997.127 1604)" fill="#635ea1" stroke="#635ea1" stroke-width="0.8"/>
  </g>
</svg>
