<svg xmlns="http://www.w3.org/2000/svg" width="40.044" height="40.1" viewBox="0 0 40.044 40.1">
  <g id="ic-fashion-jewelry" transform="translate(-169.956 -535.95)">
    <circle id="Ellipse_77" data-name="Ellipse 77" cx="18" cy="18" r="18" transform="translate(174 537)" fill="#4d40ff" opacity="0.2"/>
    <path id="Union_5" data-name="Union 5" d="M-3507.189-1503.863a31.73,31.73,0,0,1-4.179-12.178,46.184,46.184,0,0,1-.455-4.659c-.086-1.927,0-2.13.044-2.228a2.593,2.593,0,0,1,1.167-1.2,15.485,15.485,0,0,1,2.577-1.267l.25-.105-.2-.248a.787.787,0,0,1,.121-1.1.768.768,0,0,1,1.087.122l.451.57a10.2,10.2,0,0,0,2.121-1.334l-.291-.23a.787.787,0,0,1-.133-1.1.768.768,0,0,1,1.085-.134l.41.324a7.9,7.9,0,0,0,1.376-4.865c0-2.1,2.768-3.512,6.886-3.512,4.076,0,6.829,1.383,6.885,3.448,0,.021,0,.043,0,.064a8.254,8.254,0,0,0,1.3,4.933l.5-.393a.768.768,0,0,1,1.085.134.787.787,0,0,1-.133,1.1l-.39.308a9.485,9.485,0,0,0,2.168,1.322l.5-.636a.769.769,0,0,1,1.087-.122.787.787,0,0,1,.12,1.1l-.226.286.2.078a14.278,14.278,0,0,1,2.646,1.257,2.6,2.6,0,0,1,1.168,1.2c.052.12.1.234.093,1.583,0,.707-.032,1.837-.142,3.2a.777.777,0,0,1-.77.718l-.064,0a.779.779,0,0,1-.708-.842,37,37,0,0,0,.123-4.132,2.314,2.314,0,0,0-.555-.425,13.283,13.283,0,0,0-2.357-1.1c-.208-.083-.422-.168-.639-.256l-2,2.521a2.063,2.063,0,0,1,1.306,1.922,2.051,2.051,0,0,1-2.038,2.059,2.033,2.033,0,0,1-1.7-.917l-.966,1.219a3.563,3.563,0,0,1,1.772,3.072,3.518,3.518,0,0,1-3.5,3.532,3.494,3.494,0,0,1-2.588-1.16l-.652.823,3.015,3.046a.787.787,0,0,1,0,1.1l-4,4.041a.766.766,0,0,1-.547.229.766.766,0,0,1-.547-.229l-4-4.041a.787.787,0,0,1,0-1.1l3.015-3.046-.652-.823a3.493,3.493,0,0,1-2.588,1.16,3.518,3.518,0,0,1-3.5-3.532,3.563,3.563,0,0,1,1.772-3.072l-.966-1.219a2.033,2.033,0,0,1-1.7.917,2.051,2.051,0,0,1-2.039-2.06,2.062,2.062,0,0,1,1.306-1.922l-2.032-2.566c-.224.1-.445.19-.66.28a14.5,14.5,0,0,0-2.317,1.126,2.379,2.379,0,0,0-.552.421,41.177,41.177,0,0,0,.714,7.6c.676,3.651,2.146,8.73,5.313,12.191a12.256,12.256,0,0,0,9.415,4.054c7.077,0,11.838-4.309,14.15-12.807a.772.772,0,0,1,.95-.546.782.782,0,0,1,.541.96c-2.484,9.13-7.893,13.956-15.641,13.956A13.993,13.993,0,0,1-3507.189-1503.863Zm9.425-3.652,2.906,2.936,2.906-2.936-2.133-2.155v1.036a.777.777,0,0,1-.773.781.777.777,0,0,1-.773-.781v-1.036Zm3.326-4.7,10-12.625a10.313,10.313,0,0,1-2.407-1.6l-2.4,1.9v1.715a.778.778,0,0,1-.773.781.777.777,0,0,1-.773-.781v-.493l-1.533,1.212a.781.781,0,0,1,.139.446v3.83a.778.778,0,0,1-.773.781h-3.791a.777.777,0,0,1-.773-.781v-3.83a.783.783,0,0,1,.138-.446l-1.533-1.212v.493a.777.777,0,0,1-.773.781.777.777,0,0,1-.773-.781v-1.715l-2.488-1.966a11.04,11.04,0,0,1-2.377,1.6l10.054,12.693a.767.767,0,0,1,.421-.126A.765.765,0,0,1-3494.438-1512.212Zm2.752-.973a1.952,1.952,0,0,0,1.6.845,1.962,1.962,0,0,0,1.95-1.97,1.983,1.983,0,0,0-1.214-1.824Zm-9.894-1.125a1.962,1.962,0,0,0,1.95,1.97,1.953,1.953,0,0,0,1.6-.845l-2.336-2.949A1.983,1.983,0,0,0-3501.581-1514.31Zm5.6-4.3h2.244v-2.267h-2.244Zm9.787-1.134a.5.5,0,0,0,.492.5.5.5,0,0,0,.491-.5.5.5,0,0,0-.491-.5A.5.5,0,0,0-3486.194-1519.743Zm-18.314,0a.5.5,0,0,0,.492.5.5.5,0,0,0,.492-.5.5.5,0,0,0-.492-.5A.5.5,0,0,0-3504.507-1519.743Zm2.6-7.913,6.6,5.217h.888l6.53-5.16a8.521,8.521,0,0,1-1.466-3.654,10.218,10.218,0,0,1-5.517,1.277,10.2,10.2,0,0,1-5.526-1.283A8.384,8.384,0,0,1-3501.9-1527.656Zm2.88-7.054c-.752.353-1.183.8-1.183,1.222s.431.869,1.183,1.222a10.24,10.24,0,0,0,4.157.727,10.24,10.24,0,0,0,4.156-.727c.751-.353,1.182-.8,1.182-1.222s-.431-.869-1.182-1.222a10.238,10.238,0,0,0-4.156-.727A10.238,10.238,0,0,0-3499.024-1534.711Zm19.089,20.279a.794.794,0,0,1,.237-.866.773.773,0,0,1,.9-.059.79.79,0,0,1,.346.833.783.783,0,0,1-.754.611A.781.781,0,0,1-3479.935-1514.432Z" transform="translate(3681.859 2073)" fill="#635ea1" stroke="#635ea1" stroke-width="0.1"/>
  </g>
</svg>
