<svg xmlns="http://www.w3.org/2000/svg" width="40.2" height="40.2" viewBox="0 0 40.2 40.2">
  <g id="ic-organic-food" transform="translate(-167.9 -533.9)">
    <circle id="Ellipse_77" data-name="Ellipse 77" cx="18" cy="18" r="18" transform="translate(172 536)" fill="#4d40ff" opacity="0.2"/>
    <path id="Union_8" data-name="Union 8" d="M-3842.452-1771a7.09,7.09,0,0,1-6.031-3.376l-3.381.752a1.748,1.748,0,0,1-.393.043,1.81,1.81,0,0,1-1.807-1.807v-.255a1.805,1.805,0,0,1,.084-.518h-.084A1.938,1.938,0,0,1-3856-1778.1a1.938,1.938,0,0,1,1.935-1.935h.084a1.813,1.813,0,0,1-.084-.518v-.255a1.81,1.81,0,0,1,1.807-1.808,1.739,1.739,0,0,1,.394.044l3.38.751a7.137,7.137,0,0,1,1.833-1.987l-1.427-4a3.877,3.877,0,0,1-3.407-3.843,3.739,3.739,0,0,1,.112-.9,3.838,3.838,0,0,1-1.4-2.971,3.841,3.841,0,0,1,.322-1.543,5.134,5.134,0,0,1-2.257-4.264,5.185,5.185,0,0,1,3.36-4.834,3.89,3.89,0,0,1,3.609-2.906,3.866,3.866,0,0,1,3.353-1.937,3.859,3.859,0,0,1,3.646,2.588,3.817,3.817,0,0,1,3.239,1.444,3.855,3.855,0,0,1,2.567,2.427,3.875,3.875,0,0,1,4.1,3.864,3.836,3.836,0,0,1-.729,2.258,3.841,3.841,0,0,1,.729,2.258,3.857,3.857,0,0,1-.062.652,2.461,2.461,0,0,1,.181.169c.111-.091.214-.19.329-.277a2.759,2.759,0,0,1,1.139-.484l-.286-3.142c-.007-.076-.01-.151-.01-.227a2.5,2.5,0,0,1,2.5-2.5h.168a2.5,2.5,0,0,1,2.5,2.5q0,.114-.009.226l-.285,3.128a2.687,2.687,0,0,1,1.229.5c.1.074.182.161.276.239a2.715,2.715,0,0,1,1.91-.786,2.745,2.745,0,0,1,1.623.534,8.963,8.963,0,0,1,3.644,7.176v1.356a8.921,8.921,0,0,1-2.093,5.708A3.621,3.621,0,0,1-3816-1778.1a3.635,3.635,0,0,1-3.1,3.611l-22.123,3.4a7.119,7.119,0,0,1-1.079.083Zm-5.806-7.1a5.814,5.814,0,0,0,5.806,5.806h.152a5.851,5.851,0,0,0,.884-.068l22.122-3.4a2.35,2.35,0,0,0,2-2.336,2.351,2.351,0,0,0-2-2.336l-22.122-3.4a5.9,5.9,0,0,0-.884-.067h-.152A5.813,5.813,0,0,0-3848.258-1778.1Zm-4.516,2.453v.255a.531.531,0,0,0,.629.505l3.071-.682c-.074-.195-.142-.393-.2-.6h-2.984A.518.518,0,0,0-3852.774-1775.644Zm-1.936-2.453a.646.646,0,0,0,.645.645h4.549c-.019-.213-.033-.427-.033-.645s.014-.432.032-.645h-4.548A.646.646,0,0,0-3854.709-1778.1Zm1.936-2.708v.255a.518.518,0,0,0,.517.518h2.984c.058-.2.124-.4.2-.6l-3.07-.682a.508.508,0,0,0-.106-.011A.527.527,0,0,0-3852.774-1780.805Zm30.529-13.672a9.257,9.257,0,0,1,2.374,6.163v2.369a9.256,9.256,0,0,1-.9,3.979l1.282.2a7.637,7.637,0,0,0,2.2-5.327v-1.356a7.672,7.672,0,0,0-3.119-6.138,1.448,1.448,0,0,0-.857-.281A1.427,1.427,0,0,0-3822.245-1794.478Zm-5.368,6.039v2.62a12.863,12.863,0,0,0,.327,2.852l5.173.8a7.957,7.957,0,0,0,.952-3.773v-2.369a7.934,7.934,0,0,0-3.076-6.275,1.359,1.359,0,0,0-.561-.25l-.095,1.043a1.755,1.755,0,0,1,1.151,1.5c0,1.1-1.386,1.936-3.225,1.936-.166,0-.323-.014-.481-.028A12.853,12.853,0,0,0-3827.613-1788.439Zm-2.007-6.145a7.861,7.861,0,0,0-3.155,6.27v2.369a7.762,7.762,0,0,0,.318,2.182l3.8.585a14.2,14.2,0,0,1-.25-2.642v-2.62a14.185,14.185,0,0,1,.19-2.211c-.9-.335-1.481-.93-1.481-1.641a1.756,1.756,0,0,1,1.151-1.5l-.093-1.022A1.439,1.439,0,0,0-3829.62-1794.584Zm-3.906-.007a7.672,7.672,0,0,0-3.12,6.138v1.357a7.508,7.508,0,0,0,.538,2.771l2.266.349a9.052,9.052,0,0,1-.223-1.969v-2.369a9.141,9.141,0,0,1,2.406-6.138,1.424,1.424,0,0,0-1.011-.419A1.453,1.453,0,0,0-3833.525-1794.591Zm-16.628-10.977-.06.412-.4.115a3.887,3.887,0,0,0-2.805,3.719,3.856,3.856,0,0,0,2.122,3.45l.646.328-.4.6a2.566,2.566,0,0,0-.431,1.425,2.568,2.568,0,0,0,1.21,2.177l.447.283-.189.493a2.577,2.577,0,0,0-.177.918,2.583,2.583,0,0,0,2.58,2.58h.455l1.636,4.579a6.952,6.952,0,0,1,1.105-.426,3.883,3.883,0,0,1-1.26-2.863,3.756,3.756,0,0,1,.111-.9,3.842,3.842,0,0,1-1.4-2.972,3.829,3.829,0,0,1,.322-1.543,5.132,5.132,0,0,1-2.258-4.264,5.183,5.183,0,0,1,3.36-4.834,3.89,3.89,0,0,1,3.609-2.906,3.864,3.864,0,0,1,2.266-1.778,2.577,2.577,0,0,0-.849-.159,2.547,2.547,0,0,0-.562.067l-.658.146-.117-.664a2.57,2.57,0,0,0-2.533-2.13,2.577,2.577,0,0,0-2.373,1.569l-.183.429-.464-.039c-.045,0-.089-.009-.133-.016a.536.536,0,0,0-.072-.008A2.588,2.588,0,0,0-3850.154-1805.568Zm5.807,3.871-.06.412-.4.115a3.886,3.886,0,0,0-2.806,3.719,3.857,3.857,0,0,0,2.122,3.45l.647.328-.4.6a2.564,2.564,0,0,0-.431,1.425,2.569,2.569,0,0,0,1.209,2.177l.447.283-.188.493a2.583,2.583,0,0,0-.177.918,2.593,2.593,0,0,0,2.581,2.6c.2.014.392.034.585.064l3.669.565a8.8,8.8,0,0,1-.383-2.55v-1.357a8.7,8.7,0,0,1,.086-1.177,8.672,8.672,0,0,0-4.6-1.371v-1.291a10.924,10.924,0,0,1,4.423,1.022c-.394-1.305-.84-2.524-1.292-3.636-1.283-1.311-4.032-1.357-5-1.26l-.128-1.284a10.629,10.629,0,0,1,4.249.513,38,38,0,0,0-2.147-4.038l1.086-.7a40.25,40.25,0,0,1,2.691,5.2,10.213,10.213,0,0,1,2.814-4.068l.4.5.4.5a9.148,9.148,0,0,0-2.833,5q.4,1.039.766,2.183a8.991,8.991,0,0,1,2.726-3.276,2.748,2.748,0,0,1,1.623-.533,2.731,2.731,0,0,1,.536.059c0-.02,0-.039,0-.059a2.565,2.565,0,0,0-.74-1.806l-.444-.453.444-.452a2.566,2.566,0,0,0,.74-1.806,2.584,2.584,0,0,0-2.581-2.581,2.585,2.585,0,0,0-.562.067l-.658.146-.117-.664a2.571,2.571,0,0,0-2.534-2.13,2.579,2.579,0,0,0-2.374,1.57l-.182.427-.463-.037c-.046,0-.091-.009-.137-.016a.509.509,0,0,0-.07-.008A2.587,2.587,0,0,0-3844.346-1801.7Zm16.088,2.226c0,.036,0,.073,0,.11l.586,6.443-.492.158c-.565.181-.743.42-.743.47,0,.161.686.646,1.935.646s1.935-.484,1.935-.646c0-.051-.178-.289-.743-.469l-.492-.158.585-6.443a1.029,1.029,0,0,0,.005-.11,1.208,1.208,0,0,0-1.206-1.206h-.169A1.208,1.208,0,0,0-3828.258-1799.471Zm-4.516,24.6v-6.452h1.29v6.452Zm-5.161,0v-6.452h1.29v6.452Zm-5.161,0v-6.452h1.291v6.452Zm15.484-1.291v-3.871h1.291v3.871Zm5.161-.645v-2.581h1.291v2.581Z" transform="translate(4024 2345)" fill="#635ea1" stroke="#635ea1" stroke-width="0.2"/>
  </g>
</svg>
