<svg xmlns="http://www.w3.org/2000/svg" width="40.1" height="40.1" viewBox="0 0 40.1 40.1">
  <g id="ic-office-decor" transform="translate(-169.95 -535.95)">
    <circle id="Ellipse_77" data-name="Ellipse 77" cx="18" cy="18" r="18" transform="translate(174 537)" fill="#4d40ff" opacity="0.2"/>
    <path id="Union_15" data-name="Union 15" d="M-3578.563-1619.781v-15.625h-22.812v15.625a.781.781,0,0,1-.781.781.781.781,0,0,1-.781-.781v-1.562h-12.5v1.562a.781.781,0,0,1-.781.781.781.781,0,0,1-.781-.781v-21.094a.781.781,0,0,1,.781-.781h3.155a3.1,3.1,0,0,1-.42-1.562v-1.923a5.466,5.466,0,0,1-3.516-5.109.781.781,0,0,1,.781-.781h2.344a5.479,5.479,0,0,1,1.689.267,8.759,8.759,0,0,1,2.446-4.726.781.781,0,0,1,1.1,0,8.759,8.759,0,0,1,2.446,4.726,5.48,5.48,0,0,1,1.689-.267h2.344a.781.781,0,0,1,.781.781,5.466,5.466,0,0,1-3.516,5.109v1.922a3.1,3.1,0,0,1-.42,1.562h17.374v-3.125h-8.594a.781.781,0,0,1-.781-.781v-12.656a.781.781,0,0,1,.781-.781h5.859a.781.781,0,0,1,.781.781.781.781,0,0,1-.781.781h-5.078v11.094h17.188v-11.094h-5.078a.781.781,0,0,1-.781-.781.781.781,0,0,1,.781-.781h5.859a.781.781,0,0,1,.781.781v12.656a.781.781,0,0,1-.781.781h-8.594v3.125h8.594a.781.781,0,0,1,.781.781v21.094a.781.781,0,0,1-.781.781A.781.781,0,0,1-3578.563-1619.781Zm-36.875-3.125h12.5v-5.469h-12.5Zm0-7.031h12.5v-5.469h-12.5Zm0-7.031h36.875v-3.125h-36.875Zm3.516-6.25a1.564,1.564,0,0,0,1.563,1.562h2.344a1.564,1.564,0,0,0,1.563-1.562v-1.577c-.13.009-5.078.014-5.078.014-.13,0-.261-.005-.391-.014Zm5.463-5.724a3.926,3.926,0,0,0-1.868,2.6h1.483a3.944,3.944,0,0,0,.978-.123,3.9,3.9,0,0,0,2.85-3h-1.484A3.9,3.9,0,0,0-3606.459-1648.943Zm-6.05,2.476a3.943,3.943,0,0,0,.977.123h1.483a3.926,3.926,0,0,0-1.868-2.6,3.9,3.9,0,0,0-1.958-.526h-1.484A3.9,3.9,0,0,0-3612.509-1646.467Zm1.8-3.556a5.484,5.484,0,0,1,1.523,1.65,5.483,5.483,0,0,1,1.523-1.65,7.2,7.2,0,0,0-1.523-3.743A7.193,7.193,0,0,0-3610.711-1650.022Zm.742,24.382a.781.781,0,0,1,.781-.781.781.781,0,0,1,.781.781.781.781,0,0,1-.781.781A.781.781,0,0,1-3609.969-1625.641Zm0-7.031a.781.781,0,0,1,.781-.781.781.781,0,0,1,.781.781.781.781,0,0,1-.781.781A.781.781,0,0,1-3609.969-1632.672Zm22.031-25.547a.781.781,0,0,1,.781-.781.781.781,0,0,1,.781.781.781.781,0,0,1-.781.781A.781.781,0,0,1-3587.938-1658.219Z" transform="translate(3787 2195)" fill="#635ea1" stroke="#635ea1" stroke-width="0.1"/>
  </g>
</svg>
