<svg xmlns="http://www.w3.org/2000/svg" width="40.2" height="40.439" viewBox="0 0 40.2 40.439">
  <g id="ic-perfume" transform="translate(-167.8 -535.762)">
    <circle id="Ellipse_77" data-name="Ellipse 77" cx="18" cy="18" r="18" transform="translate(172 536)" fill="#4d40ff" opacity="0.2"/>
    <path id="Union_9" data-name="Union 9" d="M-3920.294-1181a1.165,1.165,0,0,1-1.164-1.165v-1.531a2.663,2.663,0,0,0-.02-.476,2.5,2.5,0,0,0-.309-.335l-.044-.044a14.143,14.143,0,0,1-4.169-10.064,14.281,14.281,0,0,1,7.18-12.367l.03-.017c0-.021,0-.042,0-.064v-1.495a.868.868,0,0,1,.867-.867h.2v-2.8a.987.987,0,0,1,.984-.987h1.113v-4.746a1.062,1.062,0,0,1,1.06-1.06h5.607a1.062,1.062,0,0,1,1.061,1.06v4.746h1.111a.988.988,0,0,1,.987.987v2.8h.2a.869.869,0,0,1,.869.867v1.495c0,.023,0,.044,0,.065l.027.015a14.276,14.276,0,0,1,3.652,2.984.586.586,0,0,1-.054.827.585.585,0,0,1-.827-.054,13.071,13.071,0,0,0-3.352-2.738,1.012,1.012,0,0,1-.619-1.033c0-.021,0-.042,0-.066v-1.19h-11.71v1.19c0,.024,0,.045,0,.065a1.013,1.013,0,0,1-.621,1.034,13.107,13.107,0,0,0-6.59,11.35,12.972,12.972,0,0,0,3.826,9.234l.044.044a1.7,1.7,0,0,1,.672,1.641v1.523h17.04v-1.514a1.7,1.7,0,0,1,.671-1.645l.048-.048a12.975,12.975,0,0,0,3.825-9.235,13.08,13.08,0,0,0-1.672-6.4.587.587,0,0,1,.224-.8.586.586,0,0,1,.8.224,14.26,14.26,0,0,1,1.823,6.975,14.142,14.142,0,0,1-4.169,10.064l-.049.048a2.618,2.618,0,0,0-.308.333,2.919,2.919,0,0,0-.019.483v1.522a1.165,1.165,0,0,1-1.164,1.165Zm11.8-28.425h1.517v-2.617h-1.517Zm-2.688,0h1.516v-2.617h-1.516Zm-2.689,0h1.517v-2.617h-1.517Zm-2.686,0h1.514v-2.617h-1.514Zm2.1-3.789h5.386v-4.635h-5.386Zm-4.543,24.236a1.589,1.589,0,0,1-1.586-1.588v-7.879a1.589,1.589,0,0,1,1.586-1.589h5.989a.586.586,0,0,1,.586.585.586.586,0,0,1-.586.586H-3919a.417.417,0,0,0-.415.418v7.879a.416.416,0,0,0,.415.417h14.47a.423.423,0,0,0,.418-.417v-7.879a.423.423,0,0,0-.418-.418h-5.962a.585.585,0,0,1-.585-.586.585.585,0,0,1,.585-.585h5.962a1.591,1.591,0,0,1,1.589,1.589v7.879a1.591,1.591,0,0,1-1.589,1.588Zm2.085-3.379a.586.586,0,0,1-.586-.586.586.586,0,0,1,.586-.586h10.3a.586.586,0,0,1,.586.586.586.586,0,0,1-.586.586Zm0-3.125a.586.586,0,0,1-.586-.586.585.585,0,0,1,.586-.585h10.3a.585.585,0,0,1,.586.585.586.586,0,0,1-.586.586Zm-6.162-16.521a.586.586,0,0,1,.215-.8l2.584-1.491a.587.587,0,0,1,.8.215.587.587,0,0,1-.216.8l-2.583,1.49a.585.585,0,0,1-.292.079A.586.586,0,0,1-3923.079-1212Zm9.9-3.251v-.556a.586.586,0,0,1,.585-.586.586.586,0,0,1,.586.586v.556a.586.586,0,0,1-.586.586A.585.585,0,0,1-3913.175-1215.254Zm-9.794-.514a.586.586,0,0,1-.586-.586.586.586,0,0,1,.586-.585h2.982a.586.586,0,0,1,.586.585.586.586,0,0,1-.586.586Zm2.69-2.647-2.584-1.49a.588.588,0,0,1-.215-.8.587.587,0,0,1,.8-.215l2.583,1.491a.586.586,0,0,1,.216.8.588.588,0,0,1-.509.294A.585.585,0,0,1-3920.279-1218.416Z" transform="translate(4094 1757)" fill="#635ea1" stroke="#635ea1" stroke-width="0.4"/>
  </g>
</svg>
