<svg xmlns="http://www.w3.org/2000/svg" width="22" height="22" viewBox="0 0 22 22">
  <g id="ic-selection-tick" transform="translate(-138 -521)">
    <g id="Path_56" data-name="Path 56" transform="translate(138 521)" fill="#fbbc05">
      <path d="M 18 21 L 1 21 L 1 4 C 1 2.345789909362793 2.345789909362793 1 4 1 L 21 1 L 21 18 C 21 19.65420913696289 19.65420913696289 21 18 21 Z" stroke="none"/>
      <path d="M 4 2 C 2.897199630737305 2 2 2.897199630737305 2 4 L 2 20 L 18 20 C 19.1028003692627 20 20 19.1028003692627 20 18 L 20 2 L 4 2 M 4 0 L 22 0 L 22 18 C 22 20.20914077758789 20.20914077758789 22 18 22 L 0 22 L 0 4 C 0 1.790859222412109 1.790859222412109 0 4 0 Z" stroke="none" fill="#fbbc05"/>
    </g>
    <path id="Path_55" data-name="Path 55" d="M38.054,45.019a.933.933,0,0,0-1.3.041.9.9,0,0,0,.042,1.285l3.692,3.409a.933.933,0,0,0,1.36-.105l6.462-8.182a.9.9,0,0,0-.162-1.276.933.933,0,0,0-1.3.159l-5.84,7.395Z" transform="translate(106.5 487)" fill="#fff"/>
  </g>
</svg>
