<svg xmlns="http://www.w3.org/2000/svg" width="23.092" height="20.823" viewBox="0 0 23.092 20.823">
  <g id="whatsapp-icon" transform="translate(1.4 1.423)">
    <circle id="Ellipse_88" data-name="Ellipse 88" cx="10" cy="10" r="10" transform="translate(1.692 -1.423)" fill="#4d40ff" opacity="0.2"/>
    <path id="Path_71" data-name="Path 71" d="M135.1,138.128l-.638-.034a.763.763,0,0,0-.537.2,2.783,2.783,0,0,0-.94,1.444A4.369,4.369,0,0,0,134,143.166a10.179,10.179,0,0,0,5.509,4,2.729,2.729,0,0,0,2.284-.269,1.982,1.982,0,0,0,.873-1.276l.1-.47a.338.338,0,0,0-.168-.37l-2.116-.974a.321.321,0,0,0-.4.1l-.84,1.075a.261.261,0,0,1-.269.067,6.527,6.527,0,0,1-3.527-3.023.254.254,0,0,1,.034-.269l.806-.907a.414.414,0,0,0,.067-.336l-.974-2.183a.293.293,0,0,0-.269-.2" transform="translate(-128.727 -133.696)" fill="#635ea1"/>
    <path id="Path_72" data-name="Path 72" d="M-.667,19A.3.3,0,0,1-.9,18.9a.4.4,0,0,1-.1-.333l1.333-4.7A9.961,9.961,0,0,1-1,8.933a10.861,10.861,0,0,1,1.059-4.5.358.358,0,0,1,.467-.067.358.358,0,0,1,.067.467,8.657,8.657,0,0,0-.926,4.1,9.415,9.415,0,0,0,1.3,4.7A.4.4,0,0,1,1,13.9L-.2,18.2,4.2,17a.274.274,0,0,1,.233.033,9.5,9.5,0,0,0,4.533,1.3,9.513,9.513,0,0,0,9.367-9.4A9.333,9.333,0,0,0,8.967-.333a6.3,6.3,0,0,0-4.133.91A.358.358,0,0,1,4.367.51.353.353,0,0,1,4.433.044,7.824,7.824,0,0,1,8.967-1,10,10,0,0,1,19,8.933,10.182,10.182,0,0,1,8.967,19a10.24,10.24,0,0,1-4.733-1.3L-.567,19Z" fill="#635ea1" stroke="#635ea1" stroke-width="0.8"/>
    <path id="Path_73" data-name="Path 73" d="M72.206,70.163a.336.336,0,1,0-.336.336.337.337,0,0,0,.336-.336" transform="translate(-69.679 -68.039)" fill="#635ea1" stroke="#635ea1" stroke-width="0.8"/>
  </g>
</svg>
