<svg xmlns="http://www.w3.org/2000/svg" width="300" height="408" viewBox="0 0 300 408">
  <g id="tavajjo-logo-final" transform="translate(-149 -72)">
    <g id="logo-icon" transform="translate(16 -140.993)">
      <g id="Group_1" data-name="Group 1" transform="translate(133 212.993)">
        <path id="Subtraction_1" data-name="Subtraction 1" d="M2.373,66.67v0A62.056,62.056,0,0,1,24.8,0,62.448,62.448,0,0,1,35.036,9.672a62.181,62.181,0,0,1,7.821,11.769,61.674,61.674,0,0,1,5,13.452A62.3,62.3,0,0,1,49.61,49.615a62.128,62.128,0,0,1-2.373,17.051A62.412,62.412,0,0,0,24.8,34.107,62.4,62.4,0,0,0,2.374,66.668Z" transform="translate(125.19 0)" fill="#fbbc05"/>
        <path id="Subtraction_2" data-name="Subtraction 2" d="M2.373,66.67v0A62.055,62.055,0,0,1,24.805,0a62.448,62.448,0,0,1,10.23,9.672,62.182,62.182,0,0,1,7.821,11.769,61.675,61.675,0,0,1,5,13.452A62.3,62.3,0,0,1,49.61,49.615a62.129,62.129,0,0,1-2.373,17.051A62.413,62.413,0,0,0,24.805,34.107,62.4,62.4,0,0,0,2.374,66.668Z" transform="translate(300 125.195) rotate(90)" fill="#fbbc05"/>
        <path id="Subtraction_3" data-name="Subtraction 3" d="M24.805,66.668h0A62.453,62.453,0,0,1,14.575,57,62.179,62.179,0,0,1,6.754,45.227a61.673,61.673,0,0,1-5-13.452A62.479,62.479,0,0,1,2.374,0,62.4,62.4,0,0,0,24.805,32.561,62.4,62.4,0,0,0,47.236,0,62.129,62.129,0,0,1,49.61,17.053a62.3,62.3,0,0,1-1.758,14.721,61.672,61.672,0,0,1-5,13.452A62.182,62.182,0,0,1,35.036,57a62.453,62.453,0,0,1-10.23,9.672Z" transform="translate(66.668 125.195) rotate(90)" fill="#fbbc05"/>
        <path id="Subtraction_4" data-name="Subtraction 4" d="M2.373,66.67v0A62.056,62.056,0,0,1,24.805,0a62.448,62.448,0,0,1,10.23,9.672,62.182,62.182,0,0,1,7.821,11.769,61.676,61.676,0,0,1,5,13.452A62.3,62.3,0,0,1,49.61,49.615a62.129,62.129,0,0,1-2.373,17.051A62.413,62.413,0,0,0,24.805,34.107,62.4,62.4,0,0,0,2.374,66.668Z" transform="translate(238.128 27.102) rotate(45)" fill="#fbbc05"/>
        <path id="Subtraction_5" data-name="Subtraction 5" d="M24.805,66.668h0A62.451,62.451,0,0,1,14.575,57,62.181,62.181,0,0,1,6.754,45.227a61.674,61.674,0,0,1-5-13.452A62.479,62.479,0,0,1,2.374,0,62.4,62.4,0,0,0,24.805,32.561,62.4,62.4,0,0,0,47.236,0,62.128,62.128,0,0,1,49.61,17.053a62.3,62.3,0,0,1-1.758,14.721,61.676,61.676,0,0,1-5,13.452A62.182,62.182,0,0,1,35.036,57a62.452,62.452,0,0,1-10.23,9.672Z" transform="translate(73.933 190.677) rotate(45)" fill="#fbbc05"/>
        <path id="Subtraction_6" data-name="Subtraction 6" d="M2.373,66.67v0A62.055,62.055,0,0,1,24.805,0a62.447,62.447,0,0,1,10.23,9.672,62.183,62.183,0,0,1,7.821,11.769,61.676,61.676,0,0,1,5,13.452A62.3,62.3,0,0,1,49.61,49.615a62.129,62.129,0,0,1-2.373,17.051A62.413,62.413,0,0,0,24.805,34.107,62.4,62.4,0,0,0,2.374,66.668Z" transform="translate(273.208 238.438) rotate(135)" fill="#fbbc05"/>
        <path id="Subtraction_7" data-name="Subtraction 7" d="M24.805,66.668h0A62.451,62.451,0,0,1,14.575,57,62.181,62.181,0,0,1,6.754,45.227a61.674,61.674,0,0,1-5-13.452A62.479,62.479,0,0,1,2.374,0,62.4,62.4,0,0,0,24.805,32.561,62.4,62.4,0,0,0,47.236,0,62.128,62.128,0,0,1,49.61,17.053a62.3,62.3,0,0,1-1.758,14.721,61.675,61.675,0,0,1-5,13.452A62.182,62.182,0,0,1,35.036,57a62.452,62.452,0,0,1-10.23,9.672Z" transform="translate(109.013 74.243) rotate(135)" fill="#fbbc05"/>
        <path id="Subtraction_8" data-name="Subtraction 8" d="M24.8,66.668h0A62.452,62.452,0,0,1,14.574,57,62.183,62.183,0,0,1,6.754,45.227a61.675,61.675,0,0,1-5-13.452A62.479,62.479,0,0,1,2.374,0,62.4,62.4,0,0,0,24.8,32.561,62.4,62.4,0,0,0,47.236,0,62.128,62.128,0,0,1,49.61,17.053a62.3,62.3,0,0,1-1.758,14.721,61.674,61.674,0,0,1-5,13.452A62.181,62.181,0,0,1,35.036,57a62.451,62.451,0,0,1-10.23,9.672Z" transform="translate(125.19 233.332)" fill="#fbbc05"/>
      </g>
      <path id="Union_2" data-name="Union 2" d="M184.464,374.92a61.934,61.934,0,0,1-7.673-9.832,67.93,67.93,0,0,1-5.828-11.584,74.27,74.27,0,0,1-5-27.083c0-1.083.023-2.19.068-3.29-.75.815-1.52,1.618-2.289,2.386a74.445,74.445,0,0,1-22.776,15.668,68.232,68.232,0,0,1-12.365,4.077,62.166,62.166,0,0,1-12.434,1.522,62.077,62.077,0,0,1,1.521-12.435,68.1,68.1,0,0,1,4.077-12.366,74.416,74.416,0,0,1,15.668-22.775c1.163-1.163,2.374-2.3,3.6-3.38-1.514.087-3.039.13-4.532.13a74.273,74.273,0,0,1-27.083-5,68.026,68.026,0,0,1-11.584-5.828A61.979,61.979,0,0,1,88,277.457a61.847,61.847,0,0,1,9.833-7.673,67.8,67.8,0,0,1,11.584-5.828,74.237,74.237,0,0,1,27.083-5c1.1,0,2.22.023,3.326.069-.813-.748-1.616-1.52-2.391-2.293a74.412,74.412,0,0,1-15.668-22.776,68.1,68.1,0,0,1-4.077-12.366,62.168,62.168,0,0,1-1.522-12.435,62.1,62.1,0,0,1,12.435,1.522,68.166,68.166,0,0,1,12.365,4.078,74.426,74.426,0,0,1,22.776,15.668c.78.779,1.551,1.582,2.29,2.387-.047-1.117-.069-2.234-.069-3.317a74.278,74.278,0,0,1,5-27.084,68,68,0,0,1,5.828-11.584,61.863,61.863,0,0,1,7.673-9.833,61.858,61.858,0,0,1,7.673,9.833,67.93,67.93,0,0,1,5.828,11.584,74.267,74.267,0,0,1,5,27.084c0,1.514-.043,3.038-.13,4.532,1.085-1.23,2.223-2.442,3.383-3.6a74.419,74.419,0,0,1,22.775-15.668,68.152,68.152,0,0,1,12.366-4.078,62.177,62.177,0,0,1,12.435-1.522,62.1,62.1,0,0,1-1.523,12.435,68.1,68.1,0,0,1-4.077,12.366,74.4,74.4,0,0,1-15.667,22.776c-.779.779-1.584,1.551-2.389,2.292,1.094-.046,2.2-.068,3.29-.068a74.242,74.242,0,0,1,27.084,5,67.786,67.786,0,0,1,11.583,5.828,61.82,61.82,0,0,1,9.833,7.673,61.929,61.929,0,0,1-9.833,7.674,67.985,67.985,0,0,1-11.583,5.828,74.278,74.278,0,0,1-27.084,5c-1.5,0-3.009-.043-4.5-.129,1.233,1.087,2.442,2.225,3.6,3.379a74.4,74.4,0,0,1,15.667,22.775,68.1,68.1,0,0,1,4.077,12.366,62.063,62.063,0,0,1,1.523,12.434,62.085,62.085,0,0,1-12.435-1.521,68.232,68.232,0,0,1-12.365-4.077,74.434,74.434,0,0,1-22.776-15.668c-1.157-1.156-2.294-2.368-3.382-3.6.086,1.485.129,3,.129,4.5a74.259,74.259,0,0,1-5,27.083,67.865,67.865,0,0,1-5.828,11.584,61.8,61.8,0,0,1-7.673,9.832h0Zm-6.5-48.491a24.694,24.694,0,0,0,7,17.5,25.375,25.375,0,0,0,0-35A24.689,24.689,0,0,0,177.964,326.429ZM141.8,311.516a25.419,25.419,0,0,0-7.673,17.32,26.305,26.305,0,0,0,24.994-24.994A25.417,25.417,0,0,0,141.8,311.516Zm74.249,7.168a25.42,25.42,0,0,0,17.321,7.674,26.3,26.3,0,0,0-24.995-24.995A25.42,25.42,0,0,0,216.049,318.684Zm-51.084-40.728a20,20,0,1,0,20-20A20.023,20.023,0,0,0,164.965,277.956Zm50.972,0a25.377,25.377,0,0,0,35,0,25.375,25.375,0,0,0-35,0Zm-96.945,0a25.377,25.377,0,0,0,35,0,25.375,25.375,0,0,0-35,0Zm97.057-40.69a25.415,25.415,0,0,0-7.674,17.321,26.3,26.3,0,0,0,24.995-24.994A25.417,25.417,0,0,0,216.049,237.267Zm-71.894,9.523a25.425,25.425,0,0,0,17.321,7.674,26.3,26.3,0,0,0-24.995-24.995A25.424,25.424,0,0,0,144.155,246.79Zm33.809-17.306a24.694,24.694,0,0,0,7,17.5,25.375,25.375,0,0,0,0-35A24.689,24.689,0,0,0,177.964,229.484Zm-3,48.472a10,10,0,1,1,10,10A10,10,0,0,1,174.965,277.956Z" transform="translate(98.028 85.037)" fill="#4d40ff"/>
    </g>
    <path id="Path_4" data-name="Path 4" d="M-124.4-12.107a15.14,15.14,0,0,0,9.4,14.2l.1.1V-50.04h13.651v-9.635H-138.15v9.635H-124.5v36.919Zm33.471.2h19.718L-66.254.774h10.415L-81.119-61.1-107.005,2.3h.1c5.966,0,12.337-4.97,14.662-10.853Zm3.741-9.635,6.168-15.315,6.067,15.315ZM-21.863-54.1l2.629-7.3h-.2a14.873,14.873,0,0,0-13.55,9.94l-9.2,25.154-11.73-33.369H-64.131L-42.188,2.6Zm8.9,42.193H6.754L11.709.774H22.124L-3.155-61.1-29.042,2.3h.1c5.966,0,12.337-4.97,14.662-10.853Zm3.741-9.635,6.168-15.315L3.013-21.539ZM46.6-61.4l-.2.1a15.14,15.14,0,0,0-9.4,14.2v30.022a9.346,9.346,0,0,1-9.3,8.926,10.477,10.477,0,0,1-3.539-.71V1.18a19.99,19.99,0,0,0,3.539.3A18.8,18.8,0,0,0,41.034-4.094,18.91,18.91,0,0,0,46.6-17.482V-61.4Zm28.111,0-.2.1a15.14,15.14,0,0,0-9.4,14.2v30.022a9.346,9.346,0,0,1-9.3,8.926,10.477,10.477,0,0,1-3.539-.71V1.18a19.99,19.99,0,0,0,3.539.3A18.8,18.8,0,0,0,69.145-4.094a18.91,18.91,0,0,0,5.562-13.388V-61.4ZM111.312,1.281a29.416,29.416,0,0,0,11.831-2.434,30.412,30.412,0,0,0,9.809-6.593,29.8,29.8,0,0,0,6.472-9.737,30.145,30.145,0,0,0,2.427-11.968,29.66,29.66,0,0,0-2.427-11.867,29.8,29.8,0,0,0-6.472-9.737,30.412,30.412,0,0,0-9.809-6.593,29.416,29.416,0,0,0-11.831-2.434A29.9,29.9,0,0,0,99.38-57.647a29.992,29.992,0,0,0-9.707,6.593A29.8,29.8,0,0,0,83.2-41.318a29.659,29.659,0,0,0-2.427,11.867A30.145,30.145,0,0,0,83.2-17.482a29.8,29.8,0,0,0,6.472,9.737A29.992,29.992,0,0,0,99.38-1.153,29.9,29.9,0,0,0,111.312,1.281Zm0-51.727a21.006,21.006,0,0,1,20.932,21,21.093,21.093,0,0,1-20.932,21.1,21.093,21.093,0,0,1-20.932-21.1A21.006,21.006,0,0,1,111.312-50.446Z" transform="translate(297.15 443.4)" fill="#4d40ff"/>
    <path id="Path_3" data-name="Path 3" d="M15.027-6.837a7.45,7.45,0,0,1-1.94,5.269A6.549,6.549,0,0,1,8.052.525,6.21,6.21,0,0,1,3.194-1.568a7.615,7.615,0,0,1-1.87-5.269v-3.08a7.642,7.642,0,0,1,1.87-5.269A6.194,6.194,0,0,1,8.052-17.29a6.54,6.54,0,0,1,5.034,2.1,7.472,7.472,0,0,1,1.94,5.275Zm-2.309-3.1a5.9,5.9,0,0,0-1.266-3.9,4.194,4.194,0,0,0-3.4-1.522,3.889,3.889,0,0,0-3.218,1.522,6.106,6.106,0,0,0-1.2,3.9v3.1a6.145,6.145,0,0,0,1.2,3.925A3.889,3.889,0,0,0,8.052-1.39a4.2,4.2,0,0,0,3.405-1.516,5.946,5.946,0,0,0,1.26-3.931ZM22.726-4.41l.293,1.653h.07l.3-1.653,2.532-8.182h1.852L30.322-4.41l.328,1.843h.07L31.1-4.41l1.875-8.182h2.415L31.7.275H29.841L27.333-7.562l-.481-2.046h-.07l-.445,2.046L23.875.275H22.011L18.331-12.593h2.4Zm18.425-8.182.164,1.915A4.638,4.638,0,0,1,42.9-12.266a4.19,4.19,0,0,1,2.174-.565,4.107,4.107,0,0,1,3.177,1.219A5.4,5.4,0,0,1,49.38-7.847V.275H47.07V-7.8a3.517,3.517,0,0,0-.662-2.414,2.631,2.631,0,0,0-2.022-.714,3.538,3.538,0,0,0-1.811.434A3.134,3.134,0,0,0,41.4-9.275V.275H39.088V-12.593ZM67.463-8.24l4.454-8.8h2.637L68.565-5.814V.275h-2.3V-5.992l-5.9-11.049h2.637ZM76.9-6.278a7.152,7.152,0,0,1,1.524-4.7,5.078,5.078,0,0,1,4.138-1.849,5.128,5.128,0,0,1,4.167,1.843,7.128,7.128,0,0,1,1.53,4.71v.262a7.117,7.117,0,0,1-1.524,4.71A5.112,5.112,0,0,1,82.582.525a5.122,5.122,0,0,1-4.155-1.837,7.1,7.1,0,0,1-1.53-4.7Zm2.309.262a6.172,6.172,0,0,0,.85,3.378,2.8,2.8,0,0,0,2.526,1.332,2.8,2.8,0,0,0,2.508-1.332,6.14,6.14,0,0,0,.856-3.378v-.262a6.121,6.121,0,0,0-.862-3.366,2.813,2.813,0,0,0-2.526-1.344,2.775,2.775,0,0,0-2.5,1.344,6.186,6.186,0,0,0-.85,3.366Zm21.367,4.389A4.329,4.329,0,0,1,99.038-.034a4.154,4.154,0,0,1-2.168.559A4.046,4.046,0,0,1,93.634-.819a6.3,6.3,0,0,1-1.16-4.186v-7.588h2.309v7.611a4.847,4.847,0,0,0,.6,2.831,2.208,2.208,0,0,0,1.864.773,3.755,3.755,0,0,0,2.034-.505,3.15,3.15,0,0,0,1.213-1.433v-9.277H102.8V.275h-2.075Zm13.033-8.9-1.184-.071a2.616,2.616,0,0,0-1.541.44,2.816,2.816,0,0,0-.967,1.237V.275H107.6V-12.593h2.063l.223,1.879a4.448,4.448,0,0,1,1.33-1.558,3.079,3.079,0,0,1,1.823-.559,2.813,2.813,0,0,1,.492.042,3.223,3.223,0,0,1,.387.089Zm20.029,7.552h.07l5.451-14.069h2.872V.275h-2.309V-12.7l-.07-.012L134.48.275h-1.606L127.552-13.14l-.07.012V.275h-2.309V-17.041h3.036ZM154.944.275q-.117-.583-.182-1.029a7.657,7.657,0,0,1-.076-.9A5.413,5.413,0,0,1,153-.1a4.255,4.255,0,0,1-2.233.624A4.109,4.109,0,0,1,147.753-.5a3.815,3.815,0,0,1-1.037-2.836,3.338,3.338,0,0,1,1.471-2.884,6.8,6.8,0,0,1,3.991-1.041h2.508V-8.537a2.379,2.379,0,0,0-.68-1.79,2.646,2.646,0,0,0-1.922-.66,2.762,2.762,0,0,0-1.817.571,1.721,1.721,0,0,0-.692,1.368l-2.192.024L147.36-9.1a3.1,3.1,0,0,1,1.3-2.569,5.317,5.317,0,0,1,3.557-1.166,5.187,5.187,0,0,1,3.47,1.112A3.967,3.967,0,0,1,157-8.513v6.2a12.235,12.235,0,0,0,.07,1.332,6.937,6.937,0,0,0,.258,1.261Zm-3.833-1.713a4.066,4.066,0,0,0,2.262-.654,3.1,3.1,0,0,0,1.313-1.5V-5.683H152.1a3.328,3.328,0,0,0-2.233.714,2.145,2.145,0,0,0-.838,1.677,1.778,1.778,0,0,0,.527,1.356A2.188,2.188,0,0,0,151.111-1.437Zm10.267-4.484a8.682,8.682,0,0,1,1.307-5.007,4.182,4.182,0,0,1,3.651-1.9,4.4,4.4,0,0,1,2.122.494,4.292,4.292,0,0,1,1.536,1.421l.281-1.677h1.84V.347a4.948,4.948,0,0,1-1.418,3.8,5.773,5.773,0,0,1-4.091,1.326,8.46,8.46,0,0,1-1.975-.256,7.652,7.652,0,0,1-1.87-.7l.352-1.82a6.614,6.614,0,0,0,1.612.577,8.163,8.163,0,0,0,1.858.22,3.332,3.332,0,0,0,2.456-.779,3.257,3.257,0,0,0,.768-2.373V-1.116A4.1,4.1,0,0,1,168.317.109a4.581,4.581,0,0,1-2,.416,4.312,4.312,0,0,1-3.628-1.707,7.188,7.188,0,0,1-1.307-4.49Zm2.309.25a5.53,5.53,0,0,0,.785,3.116A2.712,2.712,0,0,0,166.9-1.378a3.019,3.019,0,0,0,1.747-.482,3.641,3.641,0,0,0,1.16-1.362V-9.144a3.616,3.616,0,0,0-1.16-1.3,3.011,3.011,0,0,0-1.723-.482,2.622,2.622,0,0,0-2.444,1.391,7.269,7.269,0,0,0-.791,3.615Zm15.248-6.922.164,1.915a4.638,4.638,0,0,1,1.588-1.588,4.19,4.19,0,0,1,2.174-.565,4.107,4.107,0,0,1,3.177,1.219,5.4,5.4,0,0,1,1.125,3.764V.275h-2.309V-7.8a3.517,3.517,0,0,0-.662-2.414,2.631,2.631,0,0,0-2.022-.714,3.538,3.538,0,0,0-1.811.434,3.134,3.134,0,0,0-1.178,1.219V.275h-2.309V-12.593ZM194.453.275h-2.309V-12.593h2.309Zm0-16.163h-2.309v-2.39h2.309ZM200.09.275V-10.856H198.1v-1.736h1.993v-1.391a4.412,4.412,0,0,1,1.248-3.354,4.818,4.818,0,0,1,3.464-1.189,6.556,6.556,0,0,1,1.547.184q.762.184,1.793.541l-.4,1.9a10.409,10.409,0,0,0-1.325-.428,5.841,5.841,0,0,0-1.442-.178,2.673,2.673,0,0,0-1.975.618,2.632,2.632,0,0,0-.6,1.9v1.391h2.52v1.736H202.4V.275Zm9.178,0h-2.321V-12.593h2.321Zm10.02-1.582a2.693,2.693,0,0,0,1.864-.72,2.288,2.288,0,0,0,.8-1.766h2.086l.035.071a3.716,3.716,0,0,1-1.407,2.955,4.929,4.929,0,0,1-3.376,1.29,4.949,4.949,0,0,1-4.126-1.843,7.185,7.185,0,0,1-1.453-4.591v-.5a7.153,7.153,0,0,1,1.459-4.573,4.946,4.946,0,0,1,4.12-1.849,4.747,4.747,0,0,1,3.475,1.332,4.256,4.256,0,0,1,1.307,3.271l-.023.071h-2.1a2.863,2.863,0,0,0-.756-2,2.471,2.471,0,0,0-1.9-.827,2.658,2.658,0,0,0-2.479,1.338,6.335,6.335,0,0,0-.779,3.241v.5a6.456,6.456,0,0,0,.768,3.271A2.655,2.655,0,0,0,219.288-1.306ZM233.5.525a5.328,5.328,0,0,1-4.261-1.772,6.883,6.883,0,0,1-1.53-4.662v-.523a6.737,6.737,0,0,1,1.577-4.585,4.915,4.915,0,0,1,3.851-1.814,4.572,4.572,0,0,1,3.815,1.606,6.681,6.681,0,0,1,1.272,4.27v1.237h-8.111l-.035.059a5.377,5.377,0,0,0,.844,3.146A2.933,2.933,0,0,0,233.5-1.306a5.733,5.733,0,0,0,2.057-.339,4.58,4.58,0,0,0,1.518-.934l.9,1.522A5.538,5.538,0,0,1,236.189.067,7.052,7.052,0,0,1,233.5.525Zm-.363-11.512a2.5,2.5,0,0,0-2,.945,4.508,4.508,0,0,0-.967,2.42l.023.059h5.72v-.19a3.786,3.786,0,0,0-.68-2.319A2.442,2.442,0,0,0,233.141-10.987Zm11.181-1.606.164,1.915a4.638,4.638,0,0,1,1.588-1.588,4.19,4.19,0,0,1,2.174-.565,4.107,4.107,0,0,1,3.177,1.219,5.4,5.4,0,0,1,1.125,3.764V.275h-2.309V-7.8a3.517,3.517,0,0,0-.662-2.414,2.631,2.631,0,0,0-2.022-.714,3.538,3.538,0,0,0-1.811.434,3.134,3.134,0,0,0-1.178,1.219V.275h-2.309V-12.593ZM262.384-1.306a2.693,2.693,0,0,0,1.864-.72,2.288,2.288,0,0,0,.8-1.766h2.086l.035.071A3.717,3.717,0,0,1,265.76-.765a4.929,4.929,0,0,1-3.376,1.29,4.949,4.949,0,0,1-4.126-1.843A7.185,7.185,0,0,1,256.8-5.909v-.5a7.153,7.153,0,0,1,1.459-4.573,4.946,4.946,0,0,1,4.12-1.849,4.747,4.747,0,0,1,3.475,1.332,4.256,4.256,0,0,1,1.307,3.271l-.023.071h-2.1a2.863,2.863,0,0,0-.756-2,2.471,2.471,0,0,0-1.9-.827A2.658,2.658,0,0,0,259.9-9.649a6.335,6.335,0,0,0-.779,3.241v.5a6.456,6.456,0,0,0,.768,3.271A2.655,2.655,0,0,0,262.384-1.306ZM276.6.525a5.328,5.328,0,0,1-4.261-1.772,6.883,6.883,0,0,1-1.53-4.662v-.523a6.737,6.737,0,0,1,1.577-4.585,4.915,4.915,0,0,1,3.85-1.814,4.572,4.572,0,0,1,3.815,1.606,6.681,6.681,0,0,1,1.272,4.27v1.237h-8.111l-.035.059a5.377,5.377,0,0,0,.844,3.146A2.933,2.933,0,0,0,276.6-1.306a5.733,5.733,0,0,0,2.057-.339,4.581,4.581,0,0,0,1.518-.934l.9,1.522A5.539,5.539,0,0,1,279.285.067,7.052,7.052,0,0,1,276.6.525Zm-.363-11.512a2.5,2.5,0,0,0-2,.945,4.509,4.509,0,0,0-.967,2.42l.023.059h5.72v-.19a3.786,3.786,0,0,0-.68-2.319A2.442,2.442,0,0,0,276.237-10.987Z" transform="translate(157.676 474.527)" fill="#4d40ff"/>
  </g>
</svg>
